<mxfile host="65bd71144e">
    <diagram id="7SssMNPKMEvYx1phWj0T" name="第 1 页">
        <mxGraphModel dx="886" dy="580" grid="1" gridSize="10" guides="1" tooltips="1" connect="1" arrows="1" fold="1" page="1" pageScale="1" pageWidth="850" pageHeight="1100" background="#ffffff" math="0" shadow="0">
            <root>
                <mxCell id="0"/>
                <mxCell id="1" parent="0"/>
                <mxCell id="2" value="自动驾驶环境感知----3D目标检测与跟踪" style="text;html=1;strokeColor=none;fillColor=none;align=left;verticalAlign=middle;whiteSpace=wrap;rounded=0;fontSize=22;fontColor=#990000;fontStyle=1" vertex="1" parent="1">
                    <mxGeometry x="25" y="22" width="415" height="30" as="geometry"/>
                </mxCell>
                <mxCell id="3" value="    知识要点" style="swimlane;fontSize=18;fontColor=#990000;strokeColor=#000000;fillColor=none;startSize=30;align=left;" vertex="1" parent="1">
                    <mxGeometry x="25" y="570" width="415" height="170" as="geometry"/>
                </mxCell>
                <mxCell id="4" value="0&amp;nbsp; 自动驾驶技术路线回顾&lt;br&gt;1&amp;nbsp; 双输入的车道线分割技术：SNE-RoadSeg&lt;br&gt;2&amp;nbsp; SNE:surface normal estimator&lt;br&gt;3&amp;nbsp; SNE代码详解&lt;br&gt;4&amp;nbsp; RoadSeg Net代码详解" style="text;html=1;align=left;verticalAlign=middle;resizable=0;points=[];autosize=1;strokeColor=none;fillColor=none;fontSize=18;fontColor=#000000;" vertex="1" parent="3">
                    <mxGeometry x="19" y="40" width="370" height="120" as="geometry"/>
                </mxCell>
                <mxCell id="6" value="感知模块技术细分" style="rounded=1;whiteSpace=wrap;html=1;fontSize=17;fontColor=#FF0000;strokeColor=#0000FF;strokeWidth=3;fillColor=none;" vertex="1" parent="1">
                    <mxGeometry x="25" y="208" width="160" height="40" as="geometry"/>
                </mxCell>
                <mxCell id="7" value="基于传感器" style="rounded=1;whiteSpace=wrap;html=1;fontSize=12;fontColor=#FF0000;strokeColor=#0000FF;strokeWidth=3;fillColor=none;" vertex="1" parent="1">
                    <mxGeometry x="260" y="127" width="87" height="30" as="geometry"/>
                </mxCell>
                <mxCell id="8" value="" style="edgeStyle=entityRelationEdgeStyle;fontSize=12;html=1;endArrow=ERmandOne;fontColor=#FF0000;strokeColor=#0000FF;fillColor=#33FF33;exitX=1;exitY=0.5;exitDx=0;exitDy=0;entryX=0;entryY=0.5;entryDx=0;entryDy=0;" edge="1" parent="1" source="6" target="7">
                    <mxGeometry width="100" height="100" relative="1" as="geometry">
                        <mxPoint x="167" y="355" as="sourcePoint"/>
                        <mxPoint x="267" y="255" as="targetPoint"/>
                    </mxGeometry>
                </mxCell>
                <mxCell id="9" value="图像" style="rounded=1;whiteSpace=wrap;html=1;fontSize=12;fontColor=#FF0000;strokeColor=#0000FF;strokeWidth=3;fillColor=none;" vertex="1" parent="1">
                    <mxGeometry x="414" y="87" width="130" height="30" as="geometry"/>
                </mxCell>
                <mxCell id="11" value="点云" style="rounded=1;whiteSpace=wrap;html=1;fontSize=12;fontColor=#FF0000;strokeColor=#0000FF;strokeWidth=3;fillColor=none;" vertex="1" parent="1">
                    <mxGeometry x="414" y="157" width="130" height="30" as="geometry"/>
                </mxCell>
                <mxCell id="13" value="基于功能" style="rounded=1;whiteSpace=wrap;html=1;fontSize=12;fontColor=#FF0000;strokeColor=#0000FF;strokeWidth=3;fillColor=none;" vertex="1" parent="1">
                    <mxGeometry x="260" y="322" width="87" height="30" as="geometry"/>
                </mxCell>
                <mxCell id="15" value="" style="edgeStyle=entityRelationEdgeStyle;fontSize=12;html=1;endArrow=ERmandOne;fontColor=#FF0000;strokeColor=#0000FF;fillColor=#33FF33;exitX=1;exitY=0.5;exitDx=0;exitDy=0;entryX=0;entryY=0.5;entryDx=0;entryDy=0;" edge="1" parent="1" source="6" target="13">
                    <mxGeometry width="100" height="100" relative="1" as="geometry">
                        <mxPoint x="167" y="424" as="sourcePoint"/>
                        <mxPoint x="227" y="325" as="targetPoint"/>
                    </mxGeometry>
                </mxCell>
                <mxCell id="17" value="分割" style="rounded=1;whiteSpace=wrap;html=1;fontSize=12;fontColor=#FF0000;strokeColor=#0000FF;strokeWidth=3;fillColor=none;" vertex="1" parent="1">
                    <mxGeometry x="414" y="222" width="130" height="30" as="geometry"/>
                </mxCell>
                <mxCell id="18" value="检测" style="rounded=1;whiteSpace=wrap;html=1;fontSize=12;fontColor=#FF0000;strokeColor=#0000FF;strokeWidth=3;fillColor=none;" vertex="1" parent="1">
                    <mxGeometry x="414" y="292" width="130" height="30" as="geometry"/>
                </mxCell>
                <mxCell id="19" value="位置估计" style="rounded=1;whiteSpace=wrap;html=1;fontSize=12;fontColor=#FF0000;strokeColor=#0000FF;strokeWidth=3;fillColor=none;" vertex="1" parent="1">
                    <mxGeometry x="414" y="367" width="130" height="30" as="geometry"/>
                </mxCell>
                <mxCell id="20" value="融合" style="rounded=1;whiteSpace=wrap;html=1;fontSize=12;fontColor=#FF0000;strokeColor=#0000FF;strokeWidth=3;fillColor=none;" vertex="1" parent="1">
                    <mxGeometry x="414" y="437" width="130" height="30" as="geometry"/>
                </mxCell>
                <mxCell id="21" value="" style="edgeStyle=entityRelationEdgeStyle;fontSize=12;html=1;endArrow=ERmandOne;fontColor=#FF0000;strokeColor=#0000FF;fillColor=#33FF33;exitX=1;exitY=0.5;exitDx=0;exitDy=0;entryX=0;entryY=0.5;entryDx=0;entryDy=0;" edge="1" parent="1" source="7" target="11">
                    <mxGeometry width="100" height="100" relative="1" as="geometry">
                        <mxPoint x="332" y="243" as="sourcePoint"/>
                        <mxPoint x="412" y="157" as="targetPoint"/>
                    </mxGeometry>
                </mxCell>
                <mxCell id="22" value="" style="edgeStyle=entityRelationEdgeStyle;fontSize=12;html=1;endArrow=ERmandOne;fontColor=#FF0000;strokeColor=#0000FF;fillColor=#33FF33;exitX=1;exitY=0.5;exitDx=0;exitDy=0;entryX=0;entryY=0.5;entryDx=0;entryDy=0;" edge="1" parent="1" source="13" target="17">
                    <mxGeometry width="100" height="100" relative="1" as="geometry">
                        <mxPoint x="336.9999999999998" y="293" as="sourcePoint"/>
                        <mxPoint x="417" y="207" as="targetPoint"/>
                    </mxGeometry>
                </mxCell>
                <mxCell id="23" value="" style="edgeStyle=entityRelationEdgeStyle;fontSize=12;html=1;endArrow=ERmandOne;fontColor=#FF0000;strokeColor=#0000FF;fillColor=#33FF33;exitX=1;exitY=0.5;exitDx=0;exitDy=0;entryX=0;entryY=0.5;entryDx=0;entryDy=0;" edge="1" parent="1" source="13" target="18">
                    <mxGeometry width="100" height="100" relative="1" as="geometry">
                        <mxPoint x="346.9999999999998" y="425" as="sourcePoint"/>
                        <mxPoint x="427" y="339" as="targetPoint"/>
                    </mxGeometry>
                </mxCell>
                <mxCell id="24" value="" style="edgeStyle=entityRelationEdgeStyle;fontSize=12;html=1;endArrow=ERmandOne;fontColor=#FF0000;strokeColor=#0000FF;fillColor=#33FF33;exitX=1;exitY=0.5;exitDx=0;exitDy=0;entryX=0;entryY=0.5;entryDx=0;entryDy=0;" edge="1" parent="1" source="13" target="19">
                    <mxGeometry width="100" height="100" relative="1" as="geometry">
                        <mxPoint x="316.9999999999998" y="453" as="sourcePoint"/>
                        <mxPoint x="397" y="367" as="targetPoint"/>
                    </mxGeometry>
                </mxCell>
                <mxCell id="25" value="" style="edgeStyle=entityRelationEdgeStyle;fontSize=12;html=1;endArrow=ERmandOne;fontColor=#FF0000;strokeColor=#0000FF;fillColor=#33FF33;exitX=1;exitY=0.5;exitDx=0;exitDy=0;entryX=0;entryY=0.5;entryDx=0;entryDy=0;" edge="1" parent="1" source="13" target="20">
                    <mxGeometry width="100" height="100" relative="1" as="geometry">
                        <mxPoint x="266.9999999999998" y="483" as="sourcePoint"/>
                        <mxPoint x="347" y="397" as="targetPoint"/>
                    </mxGeometry>
                </mxCell>
                <mxCell id="27" value="" style="edgeStyle=entityRelationEdgeStyle;fontSize=12;html=1;endArrow=ERmandOne;fontColor=#FF0000;strokeColor=#0000FF;fillColor=#33FF33;exitX=1;exitY=0.5;exitDx=0;exitDy=0;entryX=0;entryY=0.5;entryDx=0;entryDy=0;" edge="1" parent="1" source="7" target="9">
                    <mxGeometry width="100" height="100" relative="1" as="geometry">
                        <mxPoint x="356.9999999999998" y="222" as="sourcePoint"/>
                        <mxPoint x="437" y="136" as="targetPoint"/>
                    </mxGeometry>
                </mxCell>
                <mxCell id="28" value="场景理解分割" style="text;html=1;strokeColor=none;fillColor=none;align=left;verticalAlign=middle;whiteSpace=wrap;rounded=0;fontColor=#FF0000;" vertex="1" parent="1">
                    <mxGeometry x="608" y="178" width="110" height="19" as="geometry"/>
                </mxCell>
                <mxCell id="30" value="车道线分割/可行驶区域" style="text;html=1;strokeColor=none;fillColor=none;align=left;verticalAlign=middle;whiteSpace=wrap;rounded=0;fontColor=#FF0000;" vertex="1" parent="1">
                    <mxGeometry x="608" y="208" width="132" height="19" as="geometry"/>
                </mxCell>
                <mxCell id="31" value="实例分割" style="text;html=1;strokeColor=none;fillColor=none;align=left;verticalAlign=middle;whiteSpace=wrap;rounded=0;fontColor=#FF0000;" vertex="1" parent="1">
                    <mxGeometry x="608" y="237" width="110" height="19" as="geometry"/>
                </mxCell>
                <mxCell id="32" value="目标检测" style="text;html=1;strokeColor=none;fillColor=none;align=left;verticalAlign=middle;whiteSpace=wrap;rounded=0;fontColor=#FF0000;" vertex="1" parent="1">
                    <mxGeometry x="607" y="283" width="60" height="19" as="geometry"/>
                </mxCell>
                <mxCell id="33" value="关键点检测" style="text;html=1;strokeColor=none;fillColor=none;align=left;verticalAlign=middle;whiteSpace=wrap;rounded=0;fontColor=#FF0000;" vertex="1" parent="1">
                    <mxGeometry x="607" y="312" width="70" height="19" as="geometry"/>
                </mxCell>
                <mxCell id="34" value="前融合" style="text;html=1;strokeColor=none;fillColor=none;align=left;verticalAlign=middle;whiteSpace=wrap;rounded=0;fontColor=#FF0000;" vertex="1" parent="1">
                    <mxGeometry x="608" y="428" width="110" height="19" as="geometry"/>
                </mxCell>
                <mxCell id="35" value="后融合" style="text;html=1;strokeColor=none;fillColor=none;align=left;verticalAlign=middle;whiteSpace=wrap;rounded=0;fontColor=#FF0000;" vertex="1" parent="1">
                    <mxGeometry x="608" y="457" width="110" height="19" as="geometry"/>
                </mxCell>
                <mxCell id="36" value="红绿灯、标识牌检测" style="text;html=1;strokeColor=none;fillColor=none;align=left;verticalAlign=middle;whiteSpace=wrap;rounded=0;fontColor=#FF0000;" vertex="1" parent="1">
                    <mxGeometry x="726" y="241.5" width="121" height="19" as="geometry"/>
                </mxCell>
                <mxCell id="37" value="障碍物检测" style="text;html=1;strokeColor=none;fillColor=none;align=left;verticalAlign=middle;whiteSpace=wrap;rounded=0;fontColor=#FF0000;" vertex="1" parent="1">
                    <mxGeometry x="726" y="297.5" width="110" height="19" as="geometry"/>
                </mxCell>
                <mxCell id="38" value="" style="edgeStyle=entityRelationEdgeStyle;fontSize=12;html=1;endArrow=ERmandOne;fontColor=#FF0000;strokeColor=#0000FF;fillColor=#33FF33;exitX=1;exitY=0.5;exitDx=0;exitDy=0;entryX=0;entryY=0.5;entryDx=0;entryDy=0;" edge="1" parent="1" source="32" target="37">
                    <mxGeometry width="100" height="100" relative="1" as="geometry">
                        <mxPoint x="717" y="388.9999999999999" as="sourcePoint"/>
                        <mxPoint x="777" y="307" as="targetPoint"/>
                    </mxGeometry>
                </mxCell>
                <mxCell id="39" value="" style="edgeStyle=entityRelationEdgeStyle;fontSize=12;html=1;endArrow=ERmandOne;fontColor=#FF0000;strokeColor=#0000FF;fillColor=#33FF33;exitX=1;exitY=0.5;exitDx=0;exitDy=0;entryX=0;entryY=0.5;entryDx=0;entryDy=0;" edge="1" parent="1" source="32" target="36">
                    <mxGeometry width="100" height="100" relative="1" as="geometry">
                        <mxPoint x="737" y="268.4999999999999" as="sourcePoint"/>
                        <mxPoint x="777" y="278" as="targetPoint"/>
                    </mxGeometry>
                </mxCell>
                <mxCell id="40" value="" style="edgeStyle=entityRelationEdgeStyle;fontSize=12;html=1;endArrow=ERmandOne;fontColor=#FF0000;strokeColor=#0000FF;fillColor=#33FF33;exitX=1;exitY=0.5;exitDx=0;exitDy=0;entryX=0;entryY=0.5;entryDx=0;entryDy=0;" edge="1" parent="1" source="20" target="35">
                    <mxGeometry width="100" height="100" relative="1" as="geometry">
                        <mxPoint x="607" y="409.9999999999999" as="sourcePoint"/>
                        <mxPoint x="677" y="352" as="targetPoint"/>
                    </mxGeometry>
                </mxCell>
                <mxCell id="41" value="" style="edgeStyle=entityRelationEdgeStyle;fontSize=12;html=1;endArrow=ERmandOne;fontColor=#FF0000;strokeColor=#0000FF;fillColor=#33FF33;exitX=1;exitY=0.5;exitDx=0;exitDy=0;entryX=0;entryY=0.25;entryDx=0;entryDy=0;" edge="1" parent="1" source="20" target="34">
                    <mxGeometry width="100" height="100" relative="1" as="geometry">
                        <mxPoint x="567" y="446.9999999999999" as="sourcePoint"/>
                        <mxPoint x="637" y="389" as="targetPoint"/>
                    </mxGeometry>
                </mxCell>
                <mxCell id="42" value="" style="edgeStyle=entityRelationEdgeStyle;fontSize=12;html=1;endArrow=ERmandOne;fontColor=#FF0000;strokeColor=#0000FF;fillColor=#33FF33;exitX=1;exitY=0.5;exitDx=0;exitDy=0;entryX=0;entryY=0.5;entryDx=0;entryDy=0;" edge="1" parent="1" source="17" target="30">
                    <mxGeometry width="100" height="100" relative="1" as="geometry">
                        <mxPoint x="577" y="275.4999999999999" as="sourcePoint"/>
                        <mxPoint x="647" y="217.5" as="targetPoint"/>
                    </mxGeometry>
                </mxCell>
                <mxCell id="43" value="" style="edgeStyle=entityRelationEdgeStyle;fontSize=12;html=1;endArrow=ERmandOne;fontColor=#FF0000;strokeColor=#0000FF;fillColor=#33FF33;exitX=1;exitY=0.5;exitDx=0;exitDy=0;entryX=0;entryY=0.5;entryDx=0;entryDy=0;" edge="1" parent="1" source="18" target="32">
                    <mxGeometry width="100" height="100" relative="1" as="geometry">
                        <mxPoint x="577" y="340.9999999999999" as="sourcePoint"/>
                        <mxPoint x="647" y="283" as="targetPoint"/>
                    </mxGeometry>
                </mxCell>
                <mxCell id="44" value="" style="edgeStyle=entityRelationEdgeStyle;fontSize=12;html=1;endArrow=ERmandOne;fontColor=#FF0000;strokeColor=#0000FF;fillColor=#33FF33;exitX=1;exitY=0.5;exitDx=0;exitDy=0;entryX=0;entryY=0.5;entryDx=0;entryDy=0;" edge="1" parent="1" source="18" target="33">
                    <mxGeometry width="100" height="100" relative="1" as="geometry">
                        <mxPoint x="577" y="379.9999999999999" as="sourcePoint"/>
                        <mxPoint x="647" y="322" as="targetPoint"/>
                    </mxGeometry>
                </mxCell>
                <mxCell id="45" value="" style="edgeStyle=entityRelationEdgeStyle;fontSize=12;html=1;endArrow=ERmandOne;fontColor=#FF0000;strokeColor=#0000FF;fillColor=#33FF33;exitX=1;exitY=0.5;exitDx=0;exitDy=0;entryX=0;entryY=0.5;entryDx=0;entryDy=0;" edge="1" parent="1" source="17" target="31">
                    <mxGeometry width="100" height="100" relative="1" as="geometry">
                        <mxPoint x="567" y="301.9999999999999" as="sourcePoint"/>
                        <mxPoint x="637" y="244" as="targetPoint"/>
                    </mxGeometry>
                </mxCell>
                <mxCell id="46" value="" style="edgeStyle=entityRelationEdgeStyle;fontSize=12;html=1;endArrow=ERmandOne;fontColor=#FF0000;strokeColor=#0000FF;fillColor=#33FF33;exitX=1;exitY=0.5;exitDx=0;exitDy=0;entryX=0;entryY=0.25;entryDx=0;entryDy=0;" edge="1" parent="1" source="17" target="28">
                    <mxGeometry width="100" height="100" relative="1" as="geometry">
                        <mxPoint x="577" y="226.9999999999999" as="sourcePoint"/>
                        <mxPoint x="647" y="169" as="targetPoint"/>
                    </mxGeometry>
                </mxCell>
                <mxCell id="47" value="自动驾驶环境感知----车道线分割" style="text;html=1;strokeColor=none;fillColor=none;align=left;verticalAlign=middle;whiteSpace=wrap;rounded=0;fontSize=22;fontColor=#990000;fontStyle=1" vertex="1" parent="1">
                    <mxGeometry x="25" y="520" width="335" height="30" as="geometry"/>
                </mxCell>
            </root>
        </mxGraphModel>
    </diagram>
</mxfile>